<svg width="24" height="25" viewBox="0 0 24 25" fill="none" xmlns="http://www.w3.org/2000/svg">
<g id="Iconly/Light-outline/Arrow - Right">
<g id="Arrow - Right">
<path id="Arrow - Right_2" fill-rule="evenodd" clip-rule="evenodd" d="M6.47144 11.9514C6.2052 11.9881 6 12.2197 6 12.4999C6 12.8056 6.24421 13.0535 6.54545 13.0535H16.1333L12.6698 16.5542L12.6169 16.6162C12.458 16.8326 12.475 17.1401 12.6682 17.3371C12.8808 17.5537 13.2262 17.5544 13.4396 17.3387L17.8331 12.8984C17.8547 12.8773 17.8746 12.8544 17.8925 12.8299L17.8927 12.8297C18.0519 12.6126 18.0342 12.3041 17.8396 12.1074L13.4396 7.66129L13.3783 7.60782C13.1644 7.4475 12.8614 7.46603 12.6682 7.66297C12.4557 7.87961 12.4564 8.2301 12.6699 8.4458L16.1342 11.9464H6.54545L6.47144 11.9514Z" fill="#232631"/>
</g>
</g>
</svg>
