<svg width="58" height="58" viewBox="0 0 58 58" fill="none" xmlns="http://www.w3.org/2000/svg">
<path d="M21.355 9.82222C21.355 8.81584 22.1709 8 23.1772 8H30.4661C31.4725 8 32.2884 8.81584 32.2884 9.82222V10.7333C32.2884 13.2493 30.2488 15.2889 27.7328 15.2889H25.9106C23.3946 15.2889 21.355 13.2493 21.355 10.7333V9.82222Z" fill="#FDC886"/>
<path d="M20.2994 19.448C20.9539 18.5356 22.0115 18.0222 23.1344 18.0222H30.509C31.6319 18.0222 32.6895 18.5356 33.344 19.448C35.5301 22.4955 40.43 29.8497 41.3995 35.7889C41.7804 38.1224 42.1832 39.9719 41.661 41.8605C40.7371 45.2017 36.7376 46.2667 33.271 46.2667H20.3723C16.9058 46.2667 12.9062 45.2017 11.9824 41.8605C11.4602 39.9719 11.863 38.1224 12.2439 35.7889C13.2134 29.8497 18.1133 22.4955 20.2994 19.448Z" fill="#FDC886"/>
<path d="M27.4413 40.104C27.1255 40.104 26.8643 39.9946 26.6578 39.776C26.4513 39.5695 26.348 39.3143 26.348 39.0106V37.9355C25.6434 37.8869 25.0178 37.7776 24.4711 37.6075C23.9366 37.4253 23.481 37.237 23.1044 37.0426C22.7643 36.8726 22.5517 36.6357 22.4667 36.332C22.3816 36.0161 22.3938 35.7185 22.5031 35.4391C22.6246 35.1475 22.819 34.941 23.0862 34.8195C23.3656 34.6859 23.6936 34.7102 24.0702 34.8924C24.3618 35.0503 24.7687 35.2143 25.2911 35.3844C25.8135 35.5423 26.4513 35.6213 27.2044 35.6213C28.0427 35.6213 28.6379 35.4877 28.9902 35.2204C29.3425 34.9532 29.5187 34.6191 29.5187 34.2182C29.5187 33.8902 29.3972 33.6169 29.1542 33.3982C28.9113 33.1795 28.4739 33.0034 27.8422 32.8698L25.8378 32.4324C23.6268 31.9465 22.5213 30.7681 22.5213 28.8973C22.5213 27.8769 22.8676 27.0143 23.56 26.3098C24.2524 25.6052 25.1818 25.1618 26.348 24.9795V23.8315C26.348 23.5278 26.4513 23.2727 26.6578 23.0662C26.8643 22.8475 27.1255 22.7382 27.4413 22.7382C27.745 22.7382 28.0002 22.8475 28.2067 23.0662C28.4132 23.2727 28.5164 23.5278 28.5164 23.8315V24.9249C28.9659 24.9856 29.4276 25.0949 29.9013 25.2529C30.3873 25.4108 30.8124 25.6173 31.1769 25.8724C31.4684 26.0546 31.6446 26.2915 31.7053 26.5831C31.7782 26.8625 31.7539 27.1298 31.6324 27.3849C31.511 27.64 31.3105 27.8222 31.0311 27.9315C30.7639 28.0287 30.4359 27.9801 30.0471 27.7858C29.7191 27.6278 29.3607 27.4942 28.972 27.3849C28.5833 27.2755 28.1034 27.2209 27.5324 27.2209C26.8279 27.2209 26.2751 27.3666 25.8742 27.6582C25.4733 27.9498 25.2729 28.3263 25.2729 28.788C25.2729 29.116 25.3883 29.3893 25.6191 29.608C25.8621 29.8145 26.2812 29.9846 26.8764 30.1182L28.8991 30.5555C30.0532 30.8106 30.9036 31.2298 31.4502 31.8129C32.009 32.3838 32.2884 33.1188 32.2884 34.0178C32.2884 35.0503 31.9362 35.9007 31.2316 36.5689C30.5391 37.237 29.6341 37.6683 28.5164 37.8626V39.0106C28.5164 39.3143 28.4132 39.5695 28.2067 39.776C28.0002 39.9946 27.745 40.104 27.4413 40.104Z" fill="#FFF4E7"/>
<circle cx="39.9778" cy="41.7111" r="6.37778" fill="#FDC886" stroke="#FFF4E7" stroke-width="1.82222"/>
<rect x="38.533" y="38.9778" width="5.46667" height="1.82222" rx="0.911111" transform="rotate(45 38.533 38.9778)" fill="#FFF4E7"/>
<rect x="37.2445" y="42.8433" width="5.46667" height="1.82222" rx="0.911111" transform="rotate(-45 37.2445 42.8433)" fill="#FFF4E7"/>
</svg>
