<svg width="58" height="58" viewBox="0 0 58 58" fill="none" xmlns="http://www.w3.org/2000/svg">
<path fill-rule="evenodd" clip-rule="evenodd" d="M49.2981 22.1013L51.0387 23.8413C52.4167 25.1946 53.1661 27.0313 53.1661 28.9646C53.1903 30.898 52.4409 32.7371 51.0871 34.1121C51.0709 34.1299 51.0548 34.1454 51.0387 34.161C51.0307 34.1688 51.0226 34.1766 51.0145 34.1846L49.2981 35.9005C48.6212 36.5771 48.2344 37.4955 48.2344 38.4646V40.9513C48.2344 44.963 44.9707 48.2279 40.9575 48.2279H38.4675C37.5005 48.2279 36.5818 48.6121 35.9049 49.2888L34.1643 51.0288C32.7379 52.4571 30.8764 53.1555 29.0149 53.1555C27.1534 53.1555 25.2919 52.4571 23.8655 51.0554L22.1007 49.2888C21.4238 48.6121 20.5051 48.2279 19.5381 48.2279H17.048C13.0349 48.2279 9.77124 44.963 9.77124 40.9513V38.4646C9.77124 37.4955 9.38444 36.5771 8.70753 35.8763L6.96689 34.1605C4.13837 31.3354 4.11419 26.7171 6.94272 23.8679L8.70753 22.1013C9.38444 21.4246 9.77124 20.5063 9.77124 19.5155V17.0505C9.77124 13.0388 13.0349 9.77873 17.048 9.77873H19.5381C20.5051 9.77873 21.4238 9.38964 22.1007 8.71298L23.8413 6.97298C26.6699 4.12373 31.2874 4.12373 34.1401 6.95123L35.9049 8.71298C36.5818 9.38964 37.5005 9.77873 38.4675 9.77873H40.9575C44.9707 9.77873 48.2344 13.0388 48.2344 17.0505V19.5421C48.2344 20.5063 48.6212 21.4246 49.2981 22.1013ZM22.7776 37.3264C23.3578 37.3264 23.8897 37.1089 24.2765 36.698L36.7027 24.2788C37.5246 23.4571 37.5246 22.1014 36.7027 21.2797C35.8807 20.4604 34.551 20.4604 33.7291 21.2797L21.3029 33.7014C20.4809 34.523 20.4809 35.8764 21.3029 36.698C21.6897 37.1089 22.2216 37.3264 22.7776 37.3264ZM33.1008 35.1996C33.1008 36.3838 34.0437 37.3263 35.2283 37.3263C36.3887 37.3263 37.3315 36.3838 37.3315 35.1996C37.3315 34.042 36.3887 33.0971 35.2283 33.0971C34.0437 33.0971 33.1008 34.042 33.1008 35.1996ZM22.8019 20.6754C23.9624 20.6754 24.9052 21.6179 24.9052 22.7779C24.9052 23.9645 23.9624 24.9046 22.8019 24.9046C21.6415 24.9046 20.6745 23.9645 20.6745 22.7779C20.6745 21.6179 21.6415 20.6754 22.8019 20.6754Z" fill="#FDC886"/>
</svg>
