<svg width="58" height="58" viewBox="0 0 58 58" fill="none" xmlns="http://www.w3.org/2000/svg">
<path d="M21.9457 24.6294C22.2489 23.7652 23.8949 23.7652 24.1982 24.6294C24.923 26.6946 26.0047 29.0867 27.4636 30.5457C28.9225 32.0046 31.3147 33.0863 33.3799 33.8111C34.244 34.1144 34.244 35.7603 33.3799 36.0636C31.3147 36.7884 28.9225 37.8701 27.4636 39.329C26.0047 40.7879 24.923 43.1801 24.1982 45.2453C23.8949 46.1094 22.2489 46.1094 21.9457 45.2453C21.2209 43.1801 20.1392 40.7879 18.6803 39.329C17.2213 37.8701 14.8292 36.7884 12.764 36.0636C11.8998 35.7603 11.8998 34.1144 12.764 33.8111C14.8292 33.0863 17.2213 32.0046 18.6803 30.5457C20.1392 29.0867 21.2209 26.6946 21.9457 24.6294Z" fill="#FDC886"/>
<path d="M40.1277 33.5858C40.2715 33.151 41.0765 33.151 41.2203 33.5858C41.6403 34.8558 42.307 36.4331 43.2358 37.362C44.1646 38.2908 45.7419 38.9575 47.012 39.3775C47.4467 39.5213 47.4467 40.3262 47.012 40.47C45.7419 40.89 44.1646 41.5567 43.2358 42.4856C42.307 43.4144 41.6403 44.9917 41.2203 46.2617C41.0765 46.6965 40.2715 46.6965 40.1277 46.2617C39.7077 44.9917 39.041 43.4144 38.1122 42.4856C37.1834 41.5567 35.6061 40.89 34.3361 40.47C33.9013 40.3262 33.9013 39.5213 34.3361 39.3775C35.6061 38.9575 37.1834 38.2908 38.1122 37.362C39.041 36.4331 39.7077 34.8558 40.1277 33.5858Z" fill="#FDC886"/>
<path d="M16.5786 11.7188C16.7224 11.284 17.5274 11.284 17.6712 11.7188C18.0912 12.9888 18.7579 14.5661 19.6867 15.495C20.6155 16.4238 22.1928 17.0905 23.4629 17.5105C23.8976 17.6543 23.8976 18.4592 23.4629 18.603C22.1928 19.023 20.6155 19.6897 19.6867 20.6186C18.7579 21.5474 18.0912 23.1247 17.6712 24.3947C17.5274 24.8295 16.7224 24.8295 16.5786 24.3947C16.1586 23.1247 15.4919 21.5474 14.5631 20.6186C13.6343 19.6897 12.057 19.023 10.787 18.603C10.3522 18.4592 10.3522 17.6543 10.787 17.5105C12.057 17.0905 13.6343 16.4238 14.5631 15.495C15.4919 14.5661 16.1586 12.9888 16.5786 11.7188Z" fill="#FDC886"/>
<path d="M35.1158 13.67C35.4601 12.8213 37.1892 12.8213 37.5335 13.67C38.0538 14.9528 38.7462 16.2697 39.6184 17.1418C40.4905 18.014 41.8074 18.7064 43.0903 19.2267C43.9389 19.571 43.9389 21.3002 43.0903 21.6444C41.8074 22.1648 40.4905 22.8572 39.6184 23.7293C38.7462 24.6015 38.0538 25.9183 37.5335 27.2012C37.1892 28.0499 35.4601 28.0499 35.1158 27.2012C34.5954 25.9183 33.9031 24.6015 33.0309 23.7293C32.1587 22.8572 30.8419 22.1648 29.559 21.6444C28.7103 21.3002 28.7103 19.571 29.559 19.2267C30.8419 18.7064 32.1587 18.014 33.0309 17.1418C33.9031 16.2697 34.5954 14.9528 35.1158 13.67Z" fill="#FDC886"/>
</svg>
