<svg width="34" height="34" viewBox="0 0 34 34" fill="none" xmlns="http://www.w3.org/2000/svg">
<path d="M12.2326 29.4289V25.0972C12.2326 23.9914 13.1356 23.095 14.2494 23.095H18.3212C18.8561 23.095 19.3691 23.3059 19.7473 23.6814C20.1256 24.0569 20.338 24.5662 20.338 25.0972V29.4289C20.3347 29.8887 20.5163 30.3307 20.8425 30.657C21.1688 30.9832 21.6127 31.1667 22.0758 31.1667H24.8538C26.1511 31.17 27.3966 30.6607 28.3152 29.7512C29.2337 28.8416 29.75 27.6066 29.75 26.3186V13.9781C29.75 12.9377 29.2854 11.9508 28.4815 11.2833L19.0315 3.79086C17.3877 2.47717 15.0324 2.51959 13.4376 3.89159L4.20327 11.2833C3.36138 11.9311 2.8582 12.9209 2.83333 13.9781V26.306C2.83333 28.9905 5.02546 31.1667 7.72958 31.1667H10.4441C11.4059 31.1667 12.1876 30.3963 12.1945 29.4415L12.2326 29.4289Z" fill="#5A4FCF"/>
</svg>
