<svg width="51" height="50" viewBox="0 0 51 50" fill="none" xmlns="http://www.w3.org/2000/svg">
<path fill-rule="evenodd" clip-rule="evenodd" d="M23.8919 45.6535C24.1226 45.774 24.3806 45.8353 24.6385 45.8333C24.8965 45.8312 25.1524 45.7679 25.3852 45.6453L32.8183 41.6718C34.9261 40.5482 36.5768 39.2918 37.8645 37.8291C40.6645 34.6421 42.1935 30.5746 42.1663 26.3805L42.0782 12.5458C42.0698 10.9523 41.0232 9.53046 39.4753 9.0136L25.6474 4.37411C24.8147 4.09219 23.9024 4.09832 23.0844 4.38841L9.30884 9.19338C7.76937 9.73066 6.74166 11.1628 6.75005 12.7583L6.83814 26.5828C6.86541 30.783 8.44682 34.8321 11.293 37.9864C12.5933 39.4287 14.2586 40.6667 16.3896 41.7719L23.8919 45.6535ZM21.9243 29.3933C22.2347 29.6916 22.6374 29.8386 23.0401 29.8346C23.4428 29.8325 23.8434 29.6813 24.1496 29.379L32.2727 21.3707C32.8831 20.7681 32.8768 19.7997 32.2601 19.2052C31.6414 18.6107 30.6452 18.6148 30.0348 19.2175L23.017 26.1348L20.1436 23.3728C19.5249 22.7783 18.5307 22.7844 17.9183 23.3871C17.308 23.9897 17.3143 24.9581 17.933 25.5526L21.9243 29.3933Z" fill="#FDC886"/>
</svg>
