<svg width="24" height="25" viewBox="0 0 24 25" fill="none" xmlns="http://www.w3.org/2000/svg">
<path d="M10.5734 4.89058C11.0224 3.50861 12.9776 3.50861 13.4266 4.89058L14.3574 7.75532C14.5582 8.37336 15.1341 8.7918 15.784 8.7918H18.7962C20.2492 8.7918 20.8534 10.6512 19.6778 11.5053L17.2409 13.2758C16.7152 13.6578 16.4952 14.3348 16.696 14.9529L17.6268 17.8176C18.0759 19.1996 16.4941 20.3488 15.3186 19.4947L12.8817 17.7242C12.3559 17.3422 11.6441 17.3422 11.1183 17.7242L8.68143 19.4947C7.50586 20.3488 5.92413 19.1996 6.37316 17.8176L7.30397 14.9529C7.50478 14.3348 7.2848 13.6578 6.75907 13.2758L4.32217 11.5053C3.1466 10.6512 3.75076 8.7918 5.20385 8.7918H8.21602C8.86586 8.7918 9.44179 8.37336 9.6426 7.75532L10.5734 4.89058Z" fill="#FFB800"/>
</svg>
